<svg id="visual" viewBox="0 0 900 600" width="900" height="600" xmlns="http://www.w3.org/2000/svg" xmlns:xlink="http://www.w3.org/1999/xlink" version="1.1"><rect x="0" y="0" width="900" height="600" fill="#f0f0f0"></rect><path d="M0 296L21.5 308.3C43 320.7 86 345.3 128.8 347.8C171.7 350.3 214.3 330.7 257.2 328.8C300 327 343 343 385.8 340.5C428.7 338 471.3 317 514.2 305.3C557 293.7 600 291.3 642.8 300.7C685.7 310 728.3 331 771.2 334C814 337 857 322 878.5 314.5L900 307L900 601L878.5 601C857 601 814 601 771.2 601C728.3 601 685.7 601 642.8 601C600 601 557 601 514.2 601C471.3 601 428.7 601 385.8 601C343 601 300 601 257.2 601C214.3 601 171.7 601 128.8 601C86 601 43 601 21.5 601L0 601Z" fill="#0066ff"></path><path d="M0 430L21.5 417.5C43 405 86 380 128.8 366C171.7 352 214.3 349 257.2 354C300 359 343 372 385.8 386C428.7 400 471.3 415 514.2 406.7C557 398.3 600 366.7 642.8 359.8C685.7 353 728.3 371 771.2 379.8C814 388.7 857 388.3 878.5 388.2L900 388L900 601L878.5 601C857 601 814 601 771.2 601C728.3 601 685.7 601 642.8 601C600 601 557 601 514.2 601C471.3 601 428.7 601 385.8 601C343 601 300 601 257.2 601C214.3 601 171.7 601 128.8 601C86 601 43 601 21.5 601L0 601Z" fill="#0076ff"></path><path d="M0 405L21.5 418.3C43 431.7 86 458.3 128.8 462.5C171.7 466.7 214.3 448.3 257.2 438.3C300 428.3 343 426.7 385.8 435.2C428.7 443.7 471.3 462.3 514.2 468.8C557 475.3 600 469.7 642.8 457.2C685.7 444.7 728.3 425.3 771.2 421.7C814 418 857 430 878.5 436L900 442L900 601L878.5 601C857 601 814 601 771.2 601C728.3 601 685.7 601 642.8 601C600 601 557 601 514.2 601C471.3 601 428.7 601 385.8 601C343 601 300 601 257.2 601C214.3 601 171.7 601 128.8 601C86 601 43 601 21.5 601L0 601Z" fill="#0085ff"></path><path d="M0 510L21.5 504.5C43 499 86 488 128.8 487.7C171.7 487.3 214.3 497.7 257.2 499C300 500.3 343 492.7 385.8 494C428.7 495.3 471.3 505.7 514.2 498.5C557 491.3 600 466.7 642.8 458.8C685.7 451 728.3 460 771.2 466.3C814 472.7 857 476.3 878.5 478.2L900 480L900 601L878.5 601C857 601 814 601 771.2 601C728.3 601 685.7 601 642.8 601C600 601 557 601 514.2 601C471.3 601 428.7 601 385.8 601C343 601 300 601 257.2 601C214.3 601 171.7 601 128.8 601C86 601 43 601 21.5 601L0 601Z" fill="#1393fe"></path><path d="M0 497L21.5 499.8C43 502.7 86 508.3 128.8 515C171.7 521.7 214.3 529.3 257.2 522.2C300 515 343 493 385.8 488C428.7 483 471.3 495 514.2 503.2C557 511.3 600 515.7 642.8 518.8C685.7 522 728.3 524 771.2 523C814 522 857 518 878.5 516L900 514L900 601L878.5 601C857 601 814 601 771.2 601C728.3 601 685.7 601 642.8 601C600 601 557 601 514.2 601C471.3 601 428.7 601 385.8 601C343 601 300 601 257.2 601C214.3 601 171.7 601 128.8 601C86 601 43 601 21.5 601L0 601Z" fill="#33a0fb"></path><path d="M0 545L21.5 548.7C43 552.3 86 559.7 128.8 561.3C171.7 563 214.3 559 257.2 551.5C300 544 343 533 385.8 529.8C428.7 526.7 471.3 531.3 514.2 537.2C557 543 600 550 642.8 547.2C685.7 544.3 728.3 531.7 771.2 528.3C814 525 857 531 878.5 534L900 537L900 601L878.5 601C857 601 814 601 771.2 601C728.3 601 685.7 601 642.8 601C600 601 557 601 514.2 601C471.3 601 428.7 601 385.8 601C343 601 300 601 257.2 601C214.3 601 171.7 601 128.8 601C86 601 43 601 21.5 601L0 601Z" fill="#4facf7"></path></svg>