<svg id="visual" viewBox="0 0 900 600" width="900" height="600" xmlns="http://www.w3.org/2000/svg" xmlns:xlink="http://www.w3.org/1999/xlink" version="1.1"><rect x="0" y="0" width="900" height="600" fill="#f0f0f0"></rect><path d="M0 400L21.5 404.7C43 409.3 86 418.7 128.8 411.3C171.7 404 214.3 380 257.2 374.2C300 368.3 343 380.7 385.8 395.3C428.7 410 471.3 427 514.2 431.5C557 436 600 428 642.8 424C685.7 420 728.3 420 771.2 416.3C814 412.7 857 405.3 878.5 401.7L900 398L900 601L878.5 601C857 601 814 601 771.2 601C728.3 601 685.7 601 642.8 601C600 601 557 601 514.2 601C471.3 601 428.7 601 385.8 601C343 601 300 601 257.2 601C214.3 601 171.7 601 128.8 601C86 601 43 601 21.5 601L0 601Z" fill="#0066ff"></path><path d="M0 465L21.5 462.5C43 460 86 455 128.8 453.3C171.7 451.7 214.3 453.3 257.2 455.8C300 458.3 343 461.7 385.8 459.5C428.7 457.3 471.3 449.7 514.2 442C557 434.3 600 426.7 642.8 431.3C685.7 436 728.3 453 771.2 458.5C814 464 857 458 878.5 455L900 452L900 601L878.5 601C857 601 814 601 771.2 601C728.3 601 685.7 601 642.8 601C600 601 557 601 514.2 601C471.3 601 428.7 601 385.8 601C343 601 300 601 257.2 601C214.3 601 171.7 601 128.8 601C86 601 43 601 21.5 601L0 601Z" fill="#007aff"></path><path d="M0 504L21.5 500.5C43 497 86 490 128.8 481.3C171.7 472.7 214.3 462.3 257.2 466.8C300 471.3 343 490.7 385.8 491.2C428.7 491.7 471.3 473.3 514.2 465.2C557 457 600 459 642.8 464.8C685.7 470.7 728.3 480.3 771.2 480.2C814 480 857 470 878.5 465L900 460L900 601L878.5 601C857 601 814 601 771.2 601C728.3 601 685.7 601 642.8 601C600 601 557 601 514.2 601C471.3 601 428.7 601 385.8 601C343 601 300 601 257.2 601C214.3 601 171.7 601 128.8 601C86 601 43 601 21.5 601L0 601Z" fill="#008cff"></path><path d="M0 484L21.5 493.7C43 503.3 86 522.7 128.8 528C171.7 533.3 214.3 524.7 257.2 523.8C300 523 343 530 385.8 532.2C428.7 534.3 471.3 531.7 514.2 523C557 514.3 600 499.7 642.8 498C685.7 496.3 728.3 507.7 771.2 507.7C814 507.7 857 496.3 878.5 490.7L900 485L900 601L878.5 601C857 601 814 601 771.2 601C728.3 601 685.7 601 642.8 601C600 601 557 601 514.2 601C471.3 601 428.7 601 385.8 601C343 601 300 601 257.2 601C214.3 601 171.7 601 128.8 601C86 601 43 601 21.5 601L0 601Z" fill="#2b9dfc"></path><path d="M0 533L21.5 533.7C43 534.3 86 535.7 128.8 540.8C171.7 546 214.3 555 257.2 559.2C300 563.3 343 562.7 385.8 562.8C428.7 563 471.3 564 514.2 558.2C557 552.3 600 539.7 642.8 541C685.7 542.3 728.3 557.7 771.2 558.2C814 558.7 857 544.3 878.5 537.2L900 530L900 601L878.5 601C857 601 814 601 771.2 601C728.3 601 685.7 601 642.8 601C600 601 557 601 514.2 601C471.3 601 428.7 601 385.8 601C343 601 300 601 257.2 601C214.3 601 171.7 601 128.8 601C86 601 43 601 21.5 601L0 601Z" fill="#4facf7"></path></svg>